<svg xmlns="http://www.w3.org/2000/svg" viewBox="0 0 920 400" width="920" height="400"
     font-family="'Space Grotesk','Inter',system-ui,-apple-system,sans-serif">

  <rect width="920" height="400" fill="#ffffff"/>

  <!-- grid lines -->
  <line x1="230" y1="0"   x2="230" y2="400" stroke="#f1f5f9" stroke-width="1"/>
  <line x1="460" y1="0"   x2="460" y2="400" stroke="#f1f5f9" stroke-width="1"/>
  <line x1="690" y1="0"   x2="690" y2="400" stroke="#f1f5f9" stroke-width="1"/>
  <line x1="0"   y1="195" x2="920" y2="195" stroke="#f1f5f9" stroke-width="1"/>


  <!-- ═══ ROW 1 ═══════════════════════════════════════════════════════════ -->

  <!-- 01 · Stroke chevron — the baseline -->
  <text x="115" y="26" font-size="9" font-weight="600" fill="#cbd5e1" text-anchor="middle" letter-spacing="3">01</text>
  <g transform="translate(115,95)">
    <polyline points="-16,-28 16,0 -16,28"
              stroke="#0f172a" stroke-width="7.5"
              stroke-linecap="round" stroke-linejoin="round" fill="none"/>
  </g>
  <text x="115" y="158" font-size="13" font-weight="700" fill="#0f172a" text-anchor="middle" letter-spacing="1.5">KODELYTH</text>
  <text x="115" y="175" font-size="8.5" fill="#94a3b8" text-anchor="middle" letter-spacing="2.5">STROKE</text>


  <!-- 02 · Filled chevron (open back) -->
  <text x="345" y="26" font-size="9" font-weight="600" fill="#cbd5e1" text-anchor="middle" letter-spacing="3">02</text>
  <g transform="translate(345,95)">
    <polygon points="-14,-29 18,0 -14,29 -3,29 11,0 -3,-29" fill="#0f172a"/>
  </g>
  <text x="345" y="158" font-size="13" font-weight="700" fill="#0f172a" text-anchor="middle" letter-spacing="1.5">KODELYTH</text>
  <text x="345" y="175" font-size="8.5" fill="#94a3b8" text-anchor="middle" letter-spacing="2.5">FILLED OPEN</text>


  <!-- 03 · Filled triangle (closed back — most Vercel) -->
  <text x="575" y="26" font-size="9" font-weight="600" fill="#cbd5e1" text-anchor="middle" letter-spacing="3">03</text>
  <g transform="translate(575,95)">
    <polygon points="-18,-28 20,0 -18,28" fill="#0f172a"/>
  </g>
  <text x="575" y="158" font-size="13" font-weight="700" fill="#0f172a" text-anchor="middle" letter-spacing="1.5">KODELYTH</text>
  <text x="575" y="175" font-size="8.5" fill="#94a3b8" text-anchor="middle" letter-spacing="2.5">SOLID WEDGE</text>


  <!-- 04 · Double chevron >> -->
  <text x="805" y="26" font-size="9" font-weight="600" fill="#cbd5e1" text-anchor="middle" letter-spacing="3">04</text>
  <g transform="translate(805,95)">
    <polyline points="-22,-26 -2,0 -22,26"
              stroke="#0f172a" stroke-width="5.5"
              stroke-linecap="round" stroke-linejoin="round" fill="none"/>
    <polyline points="-4,-26 16,0 -4,26"
              stroke="#0f172a" stroke-width="5.5"
              stroke-linecap="round" stroke-linejoin="round" fill="none"/>
  </g>
  <text x="805" y="158" font-size="13" font-weight="700" fill="#0f172a" text-anchor="middle" letter-spacing="1.5">KODELYTH</text>
  <text x="805" y="175" font-size="8.5" fill="#94a3b8" text-anchor="middle" letter-spacing="2.5">DOUBLE</text>


  <!-- ═══ ROW 2 ═══════════════════════════════════════════════════════════ -->

  <!-- 05 · Chevron + apex dot -->
  <text x="115" y="216" font-size="9" font-weight="600" fill="#cbd5e1" text-anchor="middle" letter-spacing="3">05</text>
  <g transform="translate(115,285)">
    <polyline points="-18,-27 10,0 -18,27"
              stroke="#0f172a" stroke-width="6.5"
              stroke-linecap="round" stroke-linejoin="round" fill="none"/>
    <circle cx="20" cy="0" r="6" fill="#0f172a"/>
  </g>
  <text x="115" y="348" font-size="13" font-weight="700" fill="#0f172a" text-anchor="middle" letter-spacing="1.5">KODELYTH</text>
  <text x="115" y="365" font-size="8.5" fill="#94a3b8" text-anchor="middle" letter-spacing="2.5">CHEVRON + NODE</text>


  <!-- 06 · Bracket form — chevron with horizontal arms -->
  <text x="345" y="216" font-size="9" font-weight="600" fill="#cbd5e1" text-anchor="middle" letter-spacing="3">06</text>
  <g transform="translate(345,285)">
    <line x1="-20" y1="-26" x2="0"  y2="-26" stroke="#0f172a" stroke-width="5.5" stroke-linecap="round"/>
    <polyline points="0,-26 18,0 0,26"
              stroke="#0f172a" stroke-width="5.5"
              stroke-linecap="round" stroke-linejoin="round" fill="none"/>
    <line x1="0"  y1="26"  x2="-20" y2="26"  stroke="#0f172a" stroke-width="5.5" stroke-linecap="round"/>
  </g>
  <text x="345" y="348" font-size="13" font-weight="700" fill="#0f172a" text-anchor="middle" letter-spacing="1.5">KODELYTH</text>
  <text x="345" y="365" font-size="8.5" fill="#94a3b8" text-anchor="middle" letter-spacing="2.5">BRACKET</text>


  <!-- 07 · Upward caret ^ (Vercel-adjacent, growth direction) -->
  <text x="575" y="216" font-size="9" font-weight="600" fill="#cbd5e1" text-anchor="middle" letter-spacing="3">07</text>
  <g transform="translate(575,285)">
    <polyline points="-26,20 0,-22 26,20"
              stroke="#0f172a" stroke-width="7.5"
              stroke-linecap="round" stroke-linejoin="round" fill="none"/>
  </g>
  <text x="575" y="348" font-size="13" font-weight="700" fill="#0f172a" text-anchor="middle" letter-spacing="1.5">KODELYTH</text>
  <text x="575" y="365" font-size="8.5" fill="#94a3b8" text-anchor="middle" letter-spacing="2.5">CARET UP</text>


  <!-- 08 · Ghost depth — bold front + faint back -->
  <text x="805" y="216" font-size="9" font-weight="600" fill="#cbd5e1" text-anchor="middle" letter-spacing="3">08</text>
  <g transform="translate(805,285)">
    <polyline points="-26,-26 -6,0 -26,26"
              stroke="#0f172a" stroke-width="4" opacity="0.2"
              stroke-linecap="round" stroke-linejoin="round" fill="none"/>
    <polyline points="-12,-27 14,0 -12,27"
              stroke="#0f172a" stroke-width="7.5"
              stroke-linecap="round" stroke-linejoin="round" fill="none"/>
  </g>
  <text x="805" y="348" font-size="13" font-weight="700" fill="#0f172a" text-anchor="middle" letter-spacing="1.5">KODELYTH</text>
  <text x="805" y="365" font-size="8.5" fill="#94a3b8" text-anchor="middle" letter-spacing="2.5">DEPTH</text>

</svg>
