<svg viewBox="0 0 680 520" xmlns="http://www.w3.org/2000/svg" font-family="'Segoe UI', system-ui, sans-serif">
  <defs><linearGradient id="bg" x1="0" y1="0" x2="1" y2="1"><stop offset="0" stop-color="#0d1117"/><stop offset="1" stop-color="#161b22"/></linearGradient>
  <marker id="ac" markerWidth="8" markerHeight="8" refX="5" refY="3" orient="auto"><path d="M0,0 L5,3 L0,6 Z" fill="#38bdf8" opacity="0.8"/></marker></defs>
  <rect width="680" height="520" rx="18" fill="url(#bg)"/><rect width="680" height="520" rx="18" fill="none" stroke="#21262d" stroke-width="1.5"/>
  <rect x="40" y="40" width="150" height="26" rx="13" fill="#38bdf8" fill-opacity="0.12" stroke="#38bdf8" stroke-opacity="0.4"/>
  <text x="115" y="57" font-size="12" fill="#38bdf8" text-anchor="middle" font-weight="700" letter-spacing="1.5">MCP SERVER</text>
  <text x="40" y="112" font-size="30" font-weight="800" fill="#ffffff">Every agent, anywhere</text>
  <text x="40" y="150" font-size="15" fill="#8b949e">One adapter bridges all 70 agents, 196 skills, and</text>
  <text x="40" y="170" font-size="15" fill="#8b949e">local memory over the Model Context Protocol.</text>
  <!-- hub + spokes -->
  <rect x="250" y="248" width="180" height="60" rx="12" fill="#38bdf8" fill-opacity="0.1" stroke="#38bdf8" stroke-opacity="0.55" stroke-width="1.5"/>
  <text x="340" y="274" font-size="13" fill="#38bdf8" text-anchor="middle" font-weight="800">kodelythecc mcp</text>
  <text x="340" y="294" font-size="10.5" fill="#38bdf8" text-anchor="middle" opacity="0.7">16 tools · 6 prompts · 381 resources</text>
  <g font-size="11.5" font-weight="600">
   <rect x="40" y="238" width="150" height="30" rx="7" fill="#a78bfa" fill-opacity="0.1" stroke="#a78bfa" stroke-opacity="0.35"/><text x="115" y="258" fill="#c4b5fd" text-anchor="middle">Claude Desktop</text>
   <rect x="40" y="288" width="150" height="30" rx="7" fill="#2563eb" fill-opacity="0.12" stroke="#2563eb" stroke-opacity="0.35"/><text x="115" y="308" fill="#60a5fa" text-anchor="middle">LangGraph</text>
   <rect x="490" y="238" width="150" height="30" rx="7" fill="#059669" fill-opacity="0.1" stroke="#059669" stroke-opacity="0.35"/><text x="565" y="258" fill="#34d399" text-anchor="middle">AutoGen · CrewAI</text>
   <rect x="490" y="288" width="150" height="30" rx="7" fill="#f59e0b" fill-opacity="0.1" stroke="#f59e0b" stroke-opacity="0.35"/><text x="565" y="308" fill="#fbbf24" text-anchor="middle">OpenAI Agents SDK</text>
  </g>
  <line x1="192" y1="253" x2="247" y2="270" stroke="#38bdf8" stroke-width="1.3" marker-end="url(#ac)" opacity="0.5"/>
  <line x1="192" y1="303" x2="247" y2="288" stroke="#38bdf8" stroke-width="1.3" marker-end="url(#ac)" opacity="0.5"/>
  <line x1="433" y1="270" x2="488" y2="253" stroke="#38bdf8" stroke-width="1.3" marker-end="url(#ac)" opacity="0.5"/>
  <line x1="433" y1="288" x2="488" y2="303" stroke="#38bdf8" stroke-width="1.3" marker-end="url(#ac)" opacity="0.5"/>
  <g font-size="13" fill="#8b949e"><text x="40" y="376">✓ stdio JSON-RPC — plug into any MCP client</text><text x="40" y="404">✓ 70 agents · 196 skills · 97 commands · 14 rules</text><text x="40" y="432">✓ Local BM25 memory exposed as a tool</text><text x="40" y="460">✓ Zero telemetry</text></g>
  <g transform="translate(600,48) scale(0.2)" opacity="0.16"><polyline points="-44,4 12,100 -44,196" stroke="#fff" stroke-width="10" stroke-linecap="round" stroke-linejoin="round" fill="none"/><polyline points="0,0 88,100 0,200" stroke="#fff" stroke-width="32" stroke-linecap="round" stroke-linejoin="round" fill="none"/></g>
</svg>
