<svg viewBox="0 0 680 520" xmlns="http://www.w3.org/2000/svg" font-family="'Segoe UI', system-ui, sans-serif">
  <defs><linearGradient id="bg" x1="0" y1="0" x2="1" y2="1"><stop offset="0" stop-color="#0d1117"/><stop offset="1" stop-color="#161b22"/></linearGradient></defs>
  <rect width="680" height="520" rx="18" fill="url(#bg)"/><rect width="680" height="520" rx="18" fill="none" stroke="#21262d" stroke-width="1.5"/>
  <rect x="40" y="40" width="176" height="26" rx="13" fill="#f87171" fill-opacity="0.1" stroke="#f87171" stroke-opacity="0.4"/>
  <text x="128" y="57" font-size="12" fill="#fca5a5" text-anchor="middle" font-weight="700" letter-spacing="1.5">DEVIL MODE</text>
  <text x="40" y="112" font-size="30" font-weight="800" fill="#ffffff">8 agents that attack</text>
  <text x="40" y="150" font-size="30" font-weight="800" fill="#ffffff">your code first</text>
  <text x="40" y="184" font-size="14.5" fill="#8b949e">Adversarial red-team sweep before you ship.</text>
  <!-- 8 agent chips in a 2x4 grid -->
  <g font-size="11.5" font-weight="600" text-anchor="middle">
   <rect x="40"  y="212" width="145" height="40" rx="9" fill="#f87171" fill-opacity="0.09" stroke="#f87171" stroke-opacity="0.3"/><text x="112" y="236" fill="#fca5a5">prompt-injection</text>
   <rect x="197" y="212" width="145" height="40" rx="9" fill="#f87171" fill-opacity="0.09" stroke="#f87171" stroke-opacity="0.3"/><text x="269" y="236" fill="#fca5a5">supply-chain</text>
   <rect x="354" y="212" width="145" height="40" rx="9" fill="#f87171" fill-opacity="0.09" stroke="#f87171" stroke-opacity="0.3"/><text x="426" y="236" fill="#fca5a5">secret-hunter</text>
   <rect x="511" y="212" width="129" height="40" rx="9" fill="#f87171" fill-opacity="0.09" stroke="#f87171" stroke-opacity="0.3"/><text x="575" y="236" fill="#fca5a5">backdoor</text>
   <rect x="40"  y="262" width="145" height="40" rx="9" fill="#f87171" fill-opacity="0.06" stroke="#f87171" stroke-opacity="0.22"/><text x="112" y="286" fill="#f87171" opacity="0.85">jailbreak-tester</text>
   <rect x="197" y="262" width="145" height="40" rx="9" fill="#f87171" fill-opacity="0.06" stroke="#f87171" stroke-opacity="0.22"/><text x="269" y="286" fill="#f87171" opacity="0.85">code-stealer</text>
   <rect x="354" y="262" width="145" height="40" rx="9" fill="#f87171" fill-opacity="0.06" stroke="#f87171" stroke-opacity="0.22"/><text x="426" y="286" fill="#f87171" opacity="0.85">license-finder</text>
   <rect x="511" y="262" width="129" height="40" rx="9" fill="#f87171" fill-opacity="0.06" stroke="#f87171" stroke-opacity="0.22"/><text x="575" y="286" fill="#f87171" opacity="0.85">chaos-eng</text>
  </g>
  <!-- command -->
  <rect x="40" y="326" width="600" height="48" rx="10" fill="#0a0c10" stroke="#30363d"/>
  <text x="60" y="356" font-size="14" font-family="monospace" fill="#fca5a5" font-weight="700">/devil-mode --all</text>
  <text x="616" y="356" font-size="12" font-family="monospace" fill="#6e7681" text-anchor="end">fires all 8 in parallel</text>
  <g font-size="13" fill="#8b949e"><text x="40" y="412">✓ Prompt injection · jailbreaks · RAG security</text><text x="40" y="440">✓ Typosquats · malicious postinstall · lockfile drift</text><text x="40" y="468">✓ Leaked keys · backdoors · obfuscated payloads</text></g>
  <g transform="translate(600,48) scale(0.2)" opacity="0.16"><polyline points="-44,4 12,100 -44,196" stroke="#fff" stroke-width="10" stroke-linecap="round" stroke-linejoin="round" fill="none"/><polyline points="0,0 88,100 0,200" stroke="#fff" stroke-width="32" stroke-linecap="round" stroke-linejoin="round" fill="none"/></g>
</svg>
