<svg xmlns="http://www.w3.org/2000/svg" viewBox="0 0 900 340" width="900" height="340" font-family="'Segoe UI', system-ui, -apple-system, sans-serif">
  <defs>
    <linearGradient id="bg" x1="0%" y1="0%" x2="100%" y2="100%">
      <stop offset="0%" style="stop-color:#050811"/>
      <stop offset="100%" style="stop-color:#0d1117"/>
    </linearGradient>
    <linearGradient id="accent" x1="0%" y1="0%" x2="100%" y2="0%">
      <stop offset="0%" style="stop-color:#7c3aed"/>
      <stop offset="100%" style="stop-color:#2563eb"/>
    </linearGradient>
    <linearGradient id="mem" x1="0%" y1="0%" x2="100%" y2="0%">
      <stop offset="0%" style="stop-color:#059669"/>
      <stop offset="100%" style="stop-color:#0891b2"/>
    </linearGradient>
  </defs>

  <rect width="900" height="340" fill="url(#bg)" rx="12"/>
  <rect x="0" y="0" width="900" height="3" fill="url(#accent)" rx="2"/>

  <!-- Header -->
  <text x="28" y="40" font-size="20" font-weight="800" fill="#ffffff" letter-spacing="-0.5">70 Specialist Agents</text>
  <text x="28" y="60" font-size="12" fill="#6e7681">Pick the right expert for every problem. Intent routing selects automatically.</text>

  <!-- Row 1 -->
  <!-- debug-detective -->
  <rect x="28" y="76" width="196" height="68" rx="8" fill="#161b22" stroke="#21262d" stroke-width="1"/>
  <rect x="28" y="76" width="3" height="68" rx="1" fill="#dc2626"/>
  <text x="42" y="96" font-size="11" font-weight="700" fill="#f87171">debug-detective</text>
  <text x="42" y="112" font-size="10.5" fill="#6e7681">Traces bugs to root cause.</text>
  <text x="42" y="127" font-size="10.5" fill="#6e7681">Never guesses.</text>
  <text x="42" y="138" font-size="9" fill="#30363d">Debugging</text>

  <!-- security-reviewer -->
  <rect x="234" y="76" width="196" height="68" rx="8" fill="#161b22" stroke="#21262d" stroke-width="1"/>
  <rect x="234" y="76" width="3" height="68" rx="1" fill="#f59e0b"/>
  <text x="248" y="96" font-size="11" font-weight="700" fill="#fcd34d">security-reviewer</text>
  <text x="248" y="112" font-size="10.5" fill="#6e7681">OWASP Top 10. Flags secrets,</text>
  <text x="248" y="127" font-size="10.5" fill="#6e7681">injection, unsafe crypto.</text>
  <text x="248" y="138" font-size="9" fill="#30363d">Security</text>

  <!-- pair-programmer -->
  <rect x="440" y="76" width="196" height="68" rx="8" fill="#161b22" stroke="#21262d" stroke-width="1"/>
  <rect x="440" y="76" width="3" height="68" rx="1" fill="#10b981"/>
  <text x="454" y="96" font-size="11" font-weight="700" fill="#6ee7b7">pair-programmer</text>
  <text x="454" y="112" font-size="10.5" fill="#6e7681">Pre-code thinking partner.</text>
  <text x="454" y="127" font-size="10.5" fill="#6e7681">Catches wrong approaches.</text>
  <text x="454" y="138" font-size="9" fill="#30363d">Planning</text>

  <!-- kodelyth-memory (NEW) -->
  <rect x="646" y="76" width="226" height="68" rx="8" fill="#0d2b1d" stroke="#059669" stroke-opacity="0.4" stroke-width="1"/>
  <rect x="646" y="76" width="3" height="68" rx="1" fill="url(#mem)"/>
  <text x="660" y="96" font-size="11" font-weight="700" fill="#10b981">kodelyth-memory</text>
  <rect x="760" y="80" width="36" height="14" rx="7" fill="#059669" fill-opacity="0.3" stroke="#059669" stroke-opacity="0.5" stroke-width="1"/>
  <text x="778" y="91" font-size="8" fill="#10b981" text-anchor="middle" font-weight="700">NEW</text>
  <text x="660" y="112" font-size="10.5" fill="#6e7681">Captures and recalls past</text>
  <text x="660" y="127" font-size="10.5" fill="#6e7681">solutions automatically.</text>
  <text x="660" y="138" font-size="9" fill="#30363d">Memory · BM25</text>

  <!-- Row 2 -->
  <!-- code-reviewer -->
  <rect x="28" y="156" width="196" height="68" rx="8" fill="#161b22" stroke="#21262d" stroke-width="1"/>
  <rect x="28" y="156" width="3" height="68" rx="1" fill="#8b5cf6"/>
  <text x="42" y="176" font-size="11" font-weight="700" fill="#c4b5fd">code-reviewer</text>
  <text x="42" y="192" font-size="10.5" fill="#6e7681">Quality, security, patterns.</text>
  <text x="42" y="207" font-size="10.5" fill="#6e7681">Use after every change.</text>
  <text x="42" y="218" font-size="9" fill="#30363d">Review</text>

  <!-- ux-reviewer -->
  <rect x="234" y="156" width="196" height="68" rx="8" fill="#161b22" stroke="#21262d" stroke-width="1"/>
  <rect x="234" y="156" width="3" height="68" rx="1" fill="#0891b2"/>
  <text x="248" y="176" font-size="11" font-weight="700" fill="#67e8f9">ux-reviewer</text>
  <text x="248" y="192" font-size="10.5" fill="#6e7681">WCAG 2.1 AA. UX behavior</text>
  <text x="248" y="207" font-size="10.5" fill="#6e7681">without touching design.</text>
  <text x="248" y="218" font-size="9" fill="#30363d">UX · Accessibility</text>

  <!-- git-rescue -->
  <rect x="440" y="156" width="196" height="68" rx="8" fill="#161b22" stroke="#21262d" stroke-width="1"/>
  <rect x="440" y="156" width="3" height="68" rx="1" fill="#22d3ee"/>
  <text x="454" y="176" font-size="11" font-weight="700" fill="#a5f3fc">git-rescue</text>
  <text x="454" y="192" font-size="10.5" fill="#6e7681">Recovers broken git states</text>
  <text x="454" y="207" font-size="10.5" fill="#6e7681">without destroying history.</text>
  <text x="454" y="218" font-size="9" fill="#30363d">Git · Recovery</text>

  <!-- flake-hunter -->
  <rect x="646" y="156" width="226" height="68" rx="8" fill="#161b22" stroke="#21262d" stroke-width="1"/>
  <rect x="646" y="156" width="3" height="68" rx="1" fill="#f97316"/>
  <text x="660" y="176" font-size="11" font-weight="700" fill="#fdba74">flake-hunter</text>
  <text x="660" y="192" font-size="10.5" fill="#6e7681">Stabilizes flaky tests. 6-class</text>
  <text x="660" y="207" font-size="10.5" fill="#6e7681">taxonomy, no blind retries.</text>
  <text x="660" y="218" font-size="9" fill="#30363d">Tests · Reliability</text>

  <!-- Row 3: smaller agent pills -->
  <line x1="28" y1="238" x2="872" y2="238" stroke="#21262d" stroke-width="1"/>
  <text x="28" y="260" font-size="11" fill="#484f58" letter-spacing="1">MORE AGENTS:</text>

  <rect x="28" y="270" width="96" height="20" rx="10" fill="#161b22" stroke="#21262d" stroke-width="1"/>
  <text x="76" y="284" font-size="10" fill="#8b949e" text-anchor="middle">kodelyth-advisor</text>

  <rect x="134" y="270" width="100" height="20" rx="10" fill="#161b22" stroke="#21262d" stroke-width="1"/>
  <text x="184" y="284" font-size="10" fill="#8b949e" text-anchor="middle">build-error-resolver</text>

  <rect x="244" y="270" width="96" height="20" rx="10" fill="#161b22" stroke="#21262d" stroke-width="1"/>
  <text x="292" y="284" font-size="10" fill="#8b949e" text-anchor="middle">release-captain</text>

  <rect x="350" y="270" width="82" height="20" rx="10" fill="#161b22" stroke="#21262d" stroke-width="1"/>
  <text x="391" y="284" font-size="10" fill="#8b949e" text-anchor="middle">env-debugger</text>

  <rect x="442" y="270" width="96" height="20" rx="10" fill="#161b22" stroke="#21262d" stroke-width="1"/>
  <text x="490" y="284" font-size="10" fill="#8b949e" text-anchor="middle">dependency-doctor</text>

  <rect x="548" y="270" width="88" height="20" rx="10" fill="#161b22" stroke="#21262d" stroke-width="1"/>
  <text x="592" y="284" font-size="10" fill="#8b949e" text-anchor="middle">performance-optimizer</text>

  <rect x="646" y="270" width="78" height="20" rx="10" fill="#161b22" stroke="#21262d" stroke-width="1"/>
  <text x="685" y="284" font-size="10" fill="#8b949e" text-anchor="middle">tdd-guide</text>

  <rect x="734" y="270" width="74" height="20" rx="10" fill="#161b22" stroke="#21262d" stroke-width="1"/>
  <text x="771" y="284" font-size="10" fill="#8b949e" text-anchor="middle">api-guardian</text>

  <rect x="818" y="270" width="54" height="20" rx="10" fill="#161b22" stroke="#21262d" stroke-width="1"/>
  <text x="845" y="284" font-size="10" fill="#8b949e" text-anchor="middle">+ 54 more</text>

  <!-- Bottom -->
  <line x1="28" y1="308" x2="872" y2="308" stroke="#21262d" stroke-width="1"/>
  <text x="450" y="326" font-size="11" fill="#484f58" text-anchor="middle">Intent routing auto-selects the right agent from your first message. No agent names needed.</text>

  <!-- Ghost Depth Mark — brand stamp (scale 0.4×) -->
  <g transform="translate(778, 90) scale(0.4)" opacity="0.16">
    <polyline points="-44,4 12,100 -44,196"
              stroke="#ffffff" stroke-width="10"
              stroke-linecap="round" stroke-linejoin="round"
              fill="none"/>
    <polyline points="0,0 88,100 0,200"
              stroke="#ffffff" stroke-width="32"
              stroke-linecap="round" stroke-linejoin="round"
              fill="none"/>
  </g>
</svg>
