<svg viewBox="0 0 900 185" xmlns="http://www.w3.org/2000/svg" font-family="'Segoe UI', system-ui, -apple-system, sans-serif">
  <defs>
    <linearGradient id="bg" x1="0%" y1="0%" x2="100%" y2="100%">
      <stop offset="0%" style="stop-color:#0d1117"/>
      <stop offset="100%" style="stop-color:#161b22"/>
    </linearGradient>
    <marker id="arr" markerWidth="7" markerHeight="7" refX="5" refY="3" orient="auto">
      <path d="M0,0 L5,3 L0,6 Z" fill="#a78bfa" opacity="0.8"/>
    </marker>
    <marker id="arrg" markerWidth="7" markerHeight="7" refX="5" refY="3" orient="auto">
      <path d="M0,0 L5,3 L0,6 Z" fill="#34d399" opacity="0.8"/>
    </marker>
  </defs>
  <rect width="900" height="185" fill="url(#bg)" rx="12"/>
  <rect width="900" height="185" fill="none" stroke="#21262d" stroke-width="1" rx="12"/>

  <!-- Label — widened to fit text -->
  <rect x="32" y="20" width="248" height="22" rx="11" fill="#f59e0b" fill-opacity="0.12" stroke="#f59e0b" stroke-opacity="0.4" stroke-width="1"/>
  <text x="156" y="35" font-size="10" fill="#fbbf24" text-anchor="middle" font-weight="700" letter-spacing="1">PARALLEL MULTI-AGENT COMMANDS</text>

  <text x="32" y="72" font-size="21" font-weight="800" fill="#ffffff">8 specialists fire simultaneously — not one by one</text>
  <text x="32" y="94" font-size="12" fill="#6e7681">60 min sequential review → 15 min parallel  ·  all results aggregated into one structured report</text>

  <!-- Command trigger box -->
  <rect x="32" y="112" width="120" height="56" rx="7" fill="#161b22" stroke="#a78bfa" stroke-opacity="0.5" stroke-width="1"/>
  <text x="92" y="132" font-size="10" fill="#a78bfa" text-anchor="middle" font-weight="700">/team-review</text>
  <text x="92" y="148" font-size="8" fill="#6e7681" text-anchor="middle">one command</text>
  <text x="92" y="160" font-size="8" fill="#6e7681" text-anchor="middle">fires 4 agents</text>

  <!-- Fan-out lines to 4 agents -->
  <line x1="155" y1="122" x2="196" y2="115" stroke="#a78bfa" stroke-width="1" marker-end="url(#arr)" opacity="0.6"/>
  <line x1="155" y1="131" x2="196" y2="131" stroke="#a78bfa" stroke-width="1" marker-end="url(#arr)" opacity="0.6"/>
  <line x1="155" y1="140" x2="196" y2="147" stroke="#a78bfa" stroke-width="1" marker-end="url(#arr)" opacity="0.6"/>
  <line x1="155" y1="149" x2="196" y2="163" stroke="#a78bfa" stroke-width="1" marker-end="url(#arr)" opacity="0.6"/>

  <!-- 4 agent pills — 130px wide each, text fits at font-size 9 -->
  <rect x="199" y="106" width="130" height="20" rx="5" fill="#a78bfa" fill-opacity="0.12" stroke="#a78bfa" stroke-opacity="0.4" stroke-width="1"/>
  <text x="264" y="119" font-size="9" fill="#a78bfa" text-anchor="middle" font-weight="600">code-reviewer</text>

  <rect x="199" y="122" width="130" height="20" rx="5" fill="#ef4444" fill-opacity="0.1" stroke="#ef4444" stroke-opacity="0.35" stroke-width="1"/>
  <text x="264" y="135" font-size="9" fill="#f87171" text-anchor="middle" font-weight="600">security-reviewer</text>

  <rect x="199" y="138" width="130" height="20" rx="5" fill="#f59e0b" fill-opacity="0.1" stroke="#f59e0b" stroke-opacity="0.35" stroke-width="1"/>
  <text x="264" y="151" font-size="9" fill="#fbbf24" text-anchor="middle" font-weight="600">performance-optimizer</text>

  <rect x="199" y="154" width="130" height="20" rx="5" fill="#2563eb" fill-opacity="0.1" stroke="#2563eb" stroke-opacity="0.35" stroke-width="1"/>
  <text x="264" y="167" font-size="9" fill="#60a5fa" text-anchor="middle" font-weight="600">api-guardian</text>

  <!-- Fan-in lines to result -->
  <line x1="332" y1="115" x2="370" y2="132" stroke="#34d399" stroke-width="1" marker-end="url(#arrg)" opacity="0.6"/>
  <line x1="332" y1="131" x2="370" y2="136" stroke="#34d399" stroke-width="1" marker-end="url(#arrg)" opacity="0.6"/>
  <line x1="332" y1="147" x2="370" y2="140" stroke="#34d399" stroke-width="1" marker-end="url(#arrg)" opacity="0.6"/>
  <line x1="332" y1="163" x2="370" y2="144" stroke="#34d399" stroke-width="1" marker-end="url(#arrg)" opacity="0.6"/>

  <!-- Result box -->
  <rect x="373" y="112" width="148" height="56" rx="7" fill="#059669" fill-opacity="0.1" stroke="#059669" stroke-opacity="0.4" stroke-width="1"/>
  <text x="447" y="131" font-size="10" fill="#34d399" text-anchor="middle" font-weight="700">Team Review Report</text>
  <text x="447" y="147" font-size="8" fill="#34d399" text-anchor="middle" opacity="0.8">CRITICAL · HIGH · MEDIUM</text>
  <text x="447" y="160" font-size="8" fill="#34d399" text-anchor="middle" opacity="0.75">1 critical found → fix first</text>

  <!-- All 8 parallel commands — two columns -->
  <text x="546" y="112" font-size="9" fill="#6e7681" font-weight="600">All 8 parallel commands:</text>
  <text x="546" y="127" font-size="9" fill="#a78bfa">/team-review</text>
  <text x="546" y="141" font-size="9" fill="#a78bfa">/project-launch</text>
  <text x="546" y="155" font-size="9" fill="#ef4444">/devil-mode</text>
  <text x="546" y="169" font-size="9" fill="#f59e0b">/security-audit</text>

  <text x="700" y="127" font-size="9" fill="#38bdf8">/debug-blitz</text>
  <text x="700" y="141" font-size="9" fill="#38bdf8">/refactor-sprint</text>
  <text x="700" y="155" font-size="9" fill="#34d399">/pre-release</text>
  <text x="700" y="169" font-size="9" fill="#34d399">/onboard</text>

  <!-- Ghost Depth Mark — brand stamp (scale 0.26×) -->
  <g transform="translate(810, 28) scale(0.26)" opacity="0.14">
    <polyline points="-44,4 12,100 -44,196"
              stroke="#ffffff" stroke-width="10"
              stroke-linecap="round" stroke-linejoin="round"
              fill="none"/>
    <polyline points="0,0 88,100 0,200"
              stroke="#ffffff" stroke-width="32"
              stroke-linecap="round" stroke-linejoin="round"
              fill="none"/>
  </g>
</svg>
