<svg width="1200" height="675" viewBox="0 0 1200 675" xmlns="http://www.w3.org/2000/svg" font-family="'Segoe UI', system-ui, -apple-system, sans-serif">
  <defs>
    <linearGradient id="bg" x1="0%" y1="0%" x2="100%" y2="100%">
      <stop offset="0%" style="stop-color:#050811"/>
      <stop offset="100%" style="stop-color:#020a05"/>
    </linearGradient>
    <linearGradient id="mem" x1="0%" y1="0%" x2="0%" y2="100%">
      <stop offset="0%" style="stop-color:#059669"/>
      <stop offset="100%" style="stop-color:#065f46"/>
    </linearGradient>
    <linearGradient id="termGrad" x1="0%" y1="0%" x2="0%" y2="100%">
      <stop offset="0%" style="stop-color:#0d1a0d"/>
      <stop offset="100%" style="stop-color:#050811"/>
    </linearGradient>
  </defs>

  <rect width="1200" height="675" fill="url(#bg)"/>
  <circle cx="1100" cy="560" r="300" fill="#059669" opacity="0.05"/>
  <circle cx="100" cy="120" r="180" fill="#059669" opacity="0.04"/>

  <!-- Header -->
  <text x="80" y="96" font-size="56" font-weight="900" letter-spacing="-2" fill="#ffffff">20+ hooks.</text>
  <text x="80" y="158" font-size="56" font-weight="900" letter-spacing="-2" fill="#10b981">Always running.</text>
  <text x="80" y="204" font-size="20" fill="#6e7681">Quality gates that fire automatically — zero configuration after install.</text>

  <line x1="80" y1="232" x2="1120" y2="232" stroke="#1a3a1a" stroke-width="1"/>

  <!-- Hook cards — left column -->
  <rect x="80" y="252" width="490" height="68" rx="8" fill="#0d1a0d" stroke="#059669" stroke-opacity="0.3" stroke-width="1"/>
  <rect x="80" y="252" width="3" height="68" rx="1" fill="url(#mem)"/>
  <text x="96" y="276" font-size="11" font-weight="700" fill="#10b981" letter-spacing="1">SESSION START — read-lessons.js</text>
  <text x="96" y="296" font-size="13" fill="#8b949e">Reads tasks/lessons.md → injects hard rules + project DNA</text>
  <text x="96" y="311" font-size="11" fill="#484f58">before your first message · fires first · v2.5.0</text>

  <rect x="80" y="336" width="490" height="68" rx="8" fill="#0d1a0d" stroke="#059669" stroke-opacity="0.3" stroke-width="1"/>
  <rect x="80" y="336" width="3" height="68" rx="1" fill="url(#mem)"/>
  <text x="96" y="360" font-size="11" font-weight="700" fill="#10b981" letter-spacing="1">STOP — capture-correction.js</text>
  <text x="96" y="380" font-size="13" fill="#8b949e">Scans session JSONL for corrections → writes to lessons.md</text>
  <text x="96" y="395" font-size="11" fill="#484f58">12 signal patterns · async · zero latency · v2.5.0</text>

  <rect x="80" y="420" width="490" height="68" rx="8" fill="#161b22" stroke="#21262d" stroke-width="1"/>
  <rect x="80" y="420" width="3" height="68" rx="1" fill="#a78bfa"/>
  <text x="96" y="444" font-size="11" font-weight="700" fill="#a78bfa" letter-spacing="1">SESSION START — memory inject</text>
  <text x="96" y="464" font-size="13" fill="#8b949e">BM25 recall from ~/.kodelyth/memory/ → past solutions</text>
  <text x="96" y="479" font-size="11" fill="#484f58">cache-friendly prefix · auto-fires · v2.5.0</text>

  <rect x="80" y="504" width="490" height="68" rx="8" fill="#161b22" stroke="#21262d" stroke-width="1"/>
  <rect x="80" y="504" width="3" height="68" rx="1" fill="#a78bfa"/>
  <text x="96" y="528" font-size="11" font-weight="700" fill="#a78bfa" letter-spacing="1">USER PROMPT — auto chat recall</text>
  <text x="96" y="548" font-size="13" fill="#8b949e">Watches every prompt → injects relevant memories before AI responds</text>
  <text x="96" y="563" font-size="11" fill="#484f58">per-session dedup · skips trivial prompts · v2.5.0</text>

  <!-- Right column — quality hooks -->
  <rect x="606" y="252" width="514" height="68" rx="8" fill="#161b22" stroke="#21262d" stroke-width="1"/>
  <rect x="606" y="252" width="3" height="68" rx="1" fill="#ef4444"/>
  <text x="622" y="276" font-size="11" font-weight="700" fill="#ef4444" letter-spacing="1">PRE-COMMIT — secret scanner</text>
  <text x="622" y="296" font-size="13" fill="#8b949e">Catches API keys, passwords, tokens before they ship</text>
  <text x="622" y="311" font-size="11" fill="#484f58">blocks commit · reports exact line · always-on</text>

  <rect x="606" y="336" width="514" height="68" rx="8" fill="#161b22" stroke="#21262d" stroke-width="1"/>
  <rect x="606" y="336" width="3" height="68" rx="1" fill="#f59e0b"/>
  <text x="622" y="360" font-size="11" font-weight="700" fill="#f59e0b" letter-spacing="1">POST EDIT — quality gate</text>
  <text x="622" y="380" font-size="13" fill="#8b949e">Runs type check + format after every file write</text>
  <text x="622" y="395" font-size="11" fill="#484f58">async · under 5s · configurable per project</text>

  <rect x="606" y="420" width="514" height="68" rx="8" fill="#161b22" stroke="#21262d" stroke-width="1"/>
  <rect x="606" y="420" width="3" height="68" rx="1" fill="#22d3ee"/>
  <text x="622" y="444" font-size="11" font-weight="700" fill="#22d3ee" letter-spacing="1">PRE-PUSH — branch + commit guard</text>
  <text x="622" y="464" font-size="13" fill="#8b949e">Validates branch name + commit message format</text>
  <text x="622" y="479" font-size="11" fill="#484f58">conventional commits · prompts review before push</text>

  <rect x="606" y="504" width="514" height="68" rx="8" fill="#161b22" stroke="#21262d" stroke-width="1"/>
  <rect x="606" y="504" width="3" height="68" rx="1" fill="#38bdf8"/>
  <text x="622" y="528" font-size="11" font-weight="700" fill="#38bdf8" letter-spacing="1">STOP — desktop notify + cost tracker</text>
  <text x="622" y="548" font-size="13" fill="#8b949e">macOS notification when long task finishes · logs token usage</text>
  <text x="622" y="563" font-size="11" fill="#484f58">~/.claude/logs/token-usage.jsonl · session cost tracking</text>

  <!-- Footer -->
  <text x="80" y="618" font-size="16" fill="#484f58">All hooks fire automatically after</text>
  <text x="340" y="618" font-size="16" fill="#10b981" font-weight="600"> npx kodelyth-ecc</text>
  <text x="1120" y="618" font-size="14" fill="#484f58" text-anchor="end">v2.5.0</text>

  <!-- Ghost Depth Mark — brand stamp (scale 0.55×) -->
  <g transform="translate(1044, 282) scale(0.55)" opacity="0.16">
    <polyline points="-44,4 12,100 -44,196"
              stroke="#ffffff" stroke-width="10"
              stroke-linecap="round" stroke-linejoin="round"
              fill="none"/>
    <polyline points="0,0 88,100 0,200"
              stroke="#ffffff" stroke-width="32"
              stroke-linecap="round" stroke-linejoin="round"
              fill="none"/>
  </g>
</svg>
